<svg width="20" height="20" viewBox="0 0 20 20" fill="none" xmlns="http://www.w3.org/2000/svg">
<path fill-rule="evenodd" clip-rule="evenodd" d="M0.326269 0.670486C0.452122 0.413164 0.713556 0.25 1.00001 0.25H19C19.2865 0.25 19.5479 0.413164 19.6737 0.670486C19.7996 0.927809 19.7679 1.23435 19.592 1.46046L12.75 10.2573V19C12.75 19.2599 12.6154 19.5013 12.3943 19.638C12.1732 19.7746 11.8971 19.7871 11.6646 19.6708L7.6646 17.6708C7.41051 17.5438 7.25001 17.2841 7.25001 17V10.2573L0.407992 1.46046C0.232128 1.23435 0.200417 0.927809 0.326269 0.670486ZM2.53349 1.75L8.59202 9.53954C8.69441 9.67119 8.75001 9.83322 8.75001 10V16.5365L11.25 17.7865V10C11.25 9.83322 11.3056 9.67119 11.408 9.53954L17.4665 1.75H2.53349Z" fill="#5780EA"/>
</svg>
